# xmcd
#
# Track frame offsets: 
#        187
#        21192
#        38270
#        54927
#        74242
#        93602
#        112527
#        128902
#        148992
#        166090
#        182202
#
# Disc length: 2656 seconds
#
# Revision: 0
# Processed by: cddbd v1.5.2PL0 Copyright (c) Steve Scherf et al.
# Submitted via: ExactAudioCopy v0.99pb4
#
DISCID=920a5e0b
DTITLE=ORITO - Soul Joint
DYEAR=1996
DGENRE=Soul
TTITLE0=I'm Yours
TTITLE1=Afraid Of Losin' You
TTITLE2=Let's Stay Together
TTITLE3=Is It Love
TTITLE4=I Never Thought
TTITLE5=Hey There Girl
TTITLE6=So Shy
TTITLE7=Givin' You All My Love
TTITLE8=Still In Love
TTITLE9=Slippin' Away
TTITLE10=I'll Come Running Back To You
EXTD=
EXTT0=
EXTT1=
EXTT2=
EXTT3=
EXTT4=
EXTT5=
EXTT6=
EXTT7=
EXTT8=
EXTT9=
EXTT10=
PLAYORDER=
